<svg xmlns="http://www.w3.org/2000/svg" xmlns:xlink="http://www.w3.org/1999/xlink" width="870" zoomAndPan="magnify" viewBox="260 330 870 900" height="900" preserveAspectRatio="xMidYMid meet" version="1.0"><defs><g/><clipPath id="41c1d080f9"><path d="M 273 572 L 500 572 L 500 800 L 273 800 Z M 273 572 " clip-rule="nonzero"/></clipPath><clipPath id="b43e2e6cb2"><path d="M 314.96875 572.285156 L 500.050781 614.109375 L 458.222656 799.195312 L 273.140625 757.367188 Z M 314.96875 572.285156 " clip-rule="nonzero"/></clipPath><clipPath id="afffc38857"><path d="M 33 7 L 186 7 L 186 227 L 33 227 Z M 33 7 " clip-rule="nonzero"/></clipPath><clipPath id="19f12fe6ac"><path d="M 41.96875 0.285156 L 227.050781 42.109375 L 185.222656 227.195312 L 0.140625 185.367188 Z M 41.96875 0.285156 " clip-rule="nonzero"/></clipPath><clipPath id="1217870379"><path d="M 226.753906 42.042969 L 41.667969 0.21875 L -0.15625 185.300781 L 184.925781 227.125 Z M 226.753906 42.042969 " clip-rule="nonzero"/></clipPath><clipPath id="a81d4e607a"><path d="M 226.753906 42.042969 L 41.667969 0.21875 L -0.15625 185.300781 L 184.925781 227.125 Z M 226.753906 42.042969 " clip-rule="nonzero"/></clipPath><clipPath id="8291272cfb"><rect x="0" width="227" y="0" height="228"/></clipPath><clipPath id="d7873a9dc6"><path d="M 499.761719 343.738281 L 1099.761719 343.738281 L 1099.761719 800.488281 L 499.761719 800.488281 Z M 499.761719 343.738281 " clip-rule="nonzero"/></clipPath></defs><rect x="-150" width="1800" fill="none" y="-149.999993" height="1799.99992" fill-opacity="0"/><rect x="-150" width="1800" fill="none" y="-149.999993" height="1799.99992" fill-opacity="0"/><g clip-path="url(#41c1d080f9)"><g clip-path="url(#b43e2e6cb2)"><g transform="matrix(1, 0, 0, 1, 273, 572)"><g clip-path="url(#8291272cfb)"><g clip-path="url(#afffc38857)"><g clip-path="url(#19f12fe6ac)"><g clip-path="url(#1217870379)"><g clip-path="url(#a81d4e607a)"><path fill="#000000" d="M 38.953125 26.402344 C 43.066406 22.882812 47.488281 19.628906 52.089844 16.722656 C 56.691406 13.816406 61.53125 11.226562 66.476562 9.027344 C 73.625 5.84375 82.167969 8.4375 86.34375 15.054688 L 173.367188 152.894531 C 173.589844 153.242188 173.738281 153.632812 173.808594 154.039062 L 185.648438 222.839844 C 185.863281 224.09375 185.304688 225.351562 184.230469 226.027344 C 183.511719 226.480469 182.660156 226.617188 181.863281 226.4375 C 181.46875 226.347656 181.085938 226.179688 180.746094 225.9375 L 123.71875 185.660156 C 123.382812 185.421875 123.097656 185.121094 122.875 184.773438 L 35.851562 46.929688 C 31.675781 40.3125 33.007812 31.488281 38.953125 26.402344 Z M 146.148438 165.707031 C 150.011719 158.335938 157.160156 153.210938 165.253906 151.800781 L 100.761719 49.652344 C 93.324219 52.289062 86.15625 55.765625 79.421875 60.015625 C 72.6875 64.265625 66.464844 69.242188 60.890625 74.828125 L 125.378906 176.976562 C 130.132812 170.277344 137.835938 166.027344 146.148438 165.707031 Z M 76.070312 54.707031 C 82.792969 50.460938 89.929688 46.945312 97.332031 44.21875 L 90.75 33.796875 C 83.3125 36.429688 76.144531 39.90625 69.410156 44.160156 C 62.675781 48.410156 56.453125 53.386719 50.878906 58.96875 L 57.457031 69.390625 C 63.101562 63.882812 69.34375 58.953125 76.070312 54.707031 Z M 168.078125 157.761719 C 160.648438 158.390625 153.988281 163.105469 151.019531 170.078125 C 150.507812 171.28125 149.304688 172.039062 148 171.984375 C 140.433594 171.664062 133.308594 175.652344 129.546875 182.089844 L 155.109375 200.144531 C 159.304688 193.871094 165.960938 189.6875 173.386719 188.601562 Z M 174.449219 194.792969 C 168.660156 195.59375 163.46875 198.859375 160.242188 203.769531 L 178.175781 216.4375 Z M 41.160156 43.578125 L 47.445312 53.535156 C 53.089844 48.023438 59.335938 43.09375 66.058594 38.847656 C 72.78125 34.605469 79.917969 31.085938 87.320312 28.359375 L 81.035156 18.40625 C 78.507812 14.40625 73.351562 12.839844 69.03125 14.761719 C 64.363281 16.839844 59.789062 19.285156 55.441406 22.03125 C 51.09375 24.777344 46.917969 27.851562 43.035156 31.175781 C 39.441406 34.246094 38.636719 39.582031 41.160156 43.578125 Z M 41.160156 43.578125 " fill-opacity="1" fill-rule="nonzero"/></g></g></g></g></g></g></g></g><g clip-path="url(#d7873a9dc6)"><path fill="#000000" d="M 1005.675781 479.300781 L 1099.644531 534.230469 L 1099.644531 466.167969 L 1009.234375 466.167969 L 799.761719 343.738281 L 590.304688 466.167969 L 499.894531 466.167969 L 499.894531 534.230469 L 586.152344 483.820312 L 586.152344 800.894531 L 599.285156 800.894531 L 599.285156 476.136719 L 799.761719 358.949219 L 983.191406 466.167969 L 677.703125 466.167969 L 677.703125 800.894531 L 756.800781 800.894531 L 756.800781 661.402344 L 842.765625 661.402344 L 842.765625 800.894531 L 1014.59375 800.894531 L 1014.59375 530.09375 L 1001.460938 530.09375 L 1001.460938 787.757812 L 855.886719 787.757812 L 855.886719 648.269531 L 743.652344 648.269531 L 743.652344 787.757812 L 690.824219 787.757812 L 690.824219 479.300781 Z M 1086.507812 479.300781 L 1086.507812 511.339844 L 1031.695312 479.300781 Z M 513.03125 511.339844 L 513.03125 479.300781 L 567.84375 479.300781 Z M 513.03125 511.339844 " fill-opacity="1" fill-rule="nonzero"/></g><g fill="#000000" fill-opacity="1"><g transform="translate(545.096031, 985.286847)"><g><path d="M 23.4375 -97.140625 L 20.296875 -76.859375 L 72.546875 -73.234375 L 75.109375 -92.125 Z M 9.09375 -49.453125 L 12.359375 -29.15625 C 15.160156 -30.632812 18.019531 -32.015625 20.9375 -33.296875 C 23.851562 -34.578125 26.828125 -35.835938 29.859375 -37.078125 C 32.890625 -38.328125 35.878906 -39.535156 38.828125 -40.703125 C 41.785156 -41.867188 44.9375 -42.6875 48.28125 -43.15625 C 50.300781 -43.3125 52.359375 -43.035156 54.453125 -42.328125 C 56.554688 -41.628906 58.132812 -40.328125 59.1875 -38.421875 C 60.238281 -36.515625 60.609375 -34.515625 60.296875 -32.421875 C 59.753906 -28.535156 58.625 -24.898438 56.90625 -21.515625 C 55.195312 -18.128906 53.332031 -14.820312 51.3125 -11.59375 C 49.289062 -8.375 47.148438 -5.25 44.890625 -2.21875 C 42.640625 0.8125 40.269531 3.804688 37.78125 6.765625 L 59.015625 12.125 C 63.054688 8.164062 66.75 3.929688 70.09375 -0.578125 C 73.4375 -5.085938 76.332031 -9.925781 78.78125 -15.09375 C 81.226562 -20.269531 82.722656 -25.734375 83.265625 -31.484375 C 83.578125 -35.523438 83.363281 -39.625 82.625 -43.78125 C 81.882812 -47.945312 80.15625 -51.679688 77.4375 -54.984375 C 74.71875 -58.285156 71.316406 -60.554688 67.234375 -61.796875 C 63.148438 -63.046875 59.085938 -63.59375 55.046875 -63.4375 C 49.597656 -63.207031 44.269531 -62.390625 39.0625 -60.984375 C 33.851562 -59.585938 28.738281 -57.914062 23.71875 -55.96875 C 18.707031 -54.03125 13.832031 -51.859375 9.09375 -49.453125 Z M 9.09375 -49.453125 "/></g></g></g><g fill="#000000" fill-opacity="1"><g transform="translate(643.519332, 985.286847)"><g><path d="M 7.234375 -80.703125 C 15.316406 -80.703125 23.398438 -80.78125 31.484375 -80.9375 C 31.796875 -86.769531 32.1875 -92.675781 32.65625 -98.65625 L 52.015625 -98.203125 C 51.628906 -92.441406 51.28125 -86.722656 50.96875 -81.046875 C 62.46875 -81.597656 74.007812 -82.378906 85.59375 -83.390625 L 85.59375 -65.421875 C 73.707031 -64.335938 61.851562 -63.5625 50.03125 -63.09375 C 49.71875 -56.332031 49.445312 -49.53125 49.21875 -42.6875 C 56.832031 -44.550781 64.53125 -45.40625 72.3125 -45.25 C 76.039062 -45.175781 79.671875 -44.359375 83.203125 -42.796875 C 86.742188 -41.242188 89.679688 -38.910156 92.015625 -35.796875 C 94.347656 -32.691406 95.804688 -29.253906 96.390625 -25.484375 C 96.972656 -21.710938 96.757812 -17.960938 95.75 -14.234375 C 94.039062 -9.878906 91.6875 -5.96875 88.6875 -2.5 C 85.695312 0.957031 82.351562 4.046875 78.65625 6.765625 C 74.96875 9.484375 71.140625 11.851562 67.171875 13.875 L 50.96875 -0.46875 C 53.144531 -1.164062 55.28125 -2 57.375 -2.96875 C 59.476562 -3.945312 61.539062 -4.976562 63.5625 -6.0625 C 65.582031 -7.15625 67.523438 -8.421875 69.390625 -9.859375 C 71.253906 -11.296875 72.734375 -13.0625 73.828125 -15.15625 C 74.523438 -17.101562 74.832031 -19.222656 74.75 -21.515625 C 74.675781 -23.804688 73.800781 -25.691406 72.125 -27.171875 C 70.457031 -28.648438 68.492188 -29.273438 66.234375 -29.046875 C 61.890625 -28.648438 57.632812 -27.847656 53.46875 -26.640625 C 49.3125 -25.441406 45.226562 -24.082031 41.21875 -22.5625 C 37.21875 -21.050781 33.273438 -19.515625 29.390625 -17.953125 L 29.390625 -29.15625 C 29.304688 -31.488281 29.304688 -34.519531 29.390625 -38.25 C 29.617188 -46.488281 30.007812 -54.691406 30.5625 -62.859375 C 22.707031 -62.859375 14.929688 -62.9375 7.234375 -63.09375 Z M 7.234375 -80.703125 "/></g></g></g><g fill="#000000" fill-opacity="1"><g transform="translate(750.805395, 985.286847)"><g><path d="M 20.296875 -92.25 L 42.6875 -92.25 L 42.21875 -62.15625 L 87.125 -38.25 L 79.53125 -19.59375 L 41.984375 -41.046875 L 41.28125 4.3125 L 19.359375 4.3125 Z M 20.296875 -92.25 "/></g></g></g><g fill="#000000" fill-opacity="1"><g transform="translate(848.529004, 985.286847)"><g><path d="M 15.390625 -83.15625 L 37.90625 -82.6875 L 36.96875 -31.953125 C 40.9375 -32.578125 44.707031 -33.859375 48.28125 -35.796875 C 51.851562 -37.742188 55.234375 -40 58.421875 -42.5625 C 69.078125 -51.269531 78.488281 -61.300781 86.65625 -72.65625 L 104.734375 -61.578125 C 93.691406 -46.648438 80.785156 -33.628906 66.015625 -22.515625 C 53.335938 -13.179688 39.492188 -6.296875 24.484375 -1.859375 L 14.921875 -9.5625 Z M 15.390625 -83.15625 "/></g></g></g><g fill="#000000" fill-opacity="1"><g transform="translate(573.846909, 1104.964805)"><g><path d="M 26.53125 0.9375 C 19.550781 0.9375 14.328125 -1.097656 10.859375 -5.171875 C 7.398438 -9.242188 5.671875 -15.578125 5.671875 -24.171875 L 5.671875 -51.453125 L 17.953125 -51.453125 L 17.953125 -22.890625 C 17.953125 -18.160156 18.648438 -14.769531 20.046875 -12.71875 C 21.441406 -10.675781 23.601562 -9.65625 26.53125 -9.65625 C 29.457031 -9.65625 31.640625 -10.675781 33.078125 -12.71875 C 34.523438 -14.769531 35.25 -18.160156 35.25 -22.890625 L 35.25 -51.453125 L 47.125 -51.453125 L 47.125 -24.171875 C 47.125 -15.578125 45.425781 -9.242188 42.03125 -5.171875 C 38.632812 -1.097656 33.46875 0.9375 26.53125 0.9375 Z M 26.53125 0.9375 "/></g></g></g><g fill="#000000" fill-opacity="1"><g transform="translate(633.27748, 1104.964805)"><g><path d="M 22.34375 0.9375 C 16.632812 0.9375 11.941406 -0.90625 8.265625 -4.59375 C 4.597656 -8.28125 2.765625 -13.296875 2.765625 -19.640625 C 2.765625 -25.941406 4.765625 -30.960938 8.765625 -34.703125 C 12.773438 -38.441406 17.660156 -40.3125 23.421875 -40.3125 C 27.835938 -40.3125 31.664062 -38.914062 34.90625 -36.125 L 29.171875 -28.21875 C 27.460938 -29.664062 25.773438 -30.390625 24.109375 -30.390625 C 21.398438 -30.390625 19.257812 -29.421875 17.6875 -27.484375 C 16.113281 -25.546875 15.328125 -22.929688 15.328125 -19.640625 C 15.328125 -16.453125 16.101562 -13.878906 17.65625 -11.921875 C 19.207031 -9.960938 21.222656 -8.984375 23.703125 -8.984375 C 25.992188 -8.984375 28.289062 -9.90625 30.59375 -11.75 L 35.25 -3.640625 C 31.820312 -0.585938 27.519531 0.9375 22.34375 0.9375 Z M 22.34375 0.9375 "/></g></g></g><g fill="#000000" fill-opacity="1"><g transform="translate(677.046035, 1104.964805)"><g><path d="M 5 0 L 5 -55.234375 L 17.21875 -55.234375 L 17.21875 -42 L 16.671875 -34.96875 C 20.503906 -38.53125 24.515625 -40.3125 28.703125 -40.3125 C 36.847656 -40.3125 40.921875 -34.976562 40.921875 -24.3125 L 40.921875 0 L 28.625 0 L 28.625 -22.828125 C 28.625 -25.429688 28.265625 -27.238281 27.546875 -28.25 C 26.828125 -29.269531 25.65625 -29.78125 24.03125 -29.78125 C 22.726562 -29.78125 21.601562 -29.507812 20.65625 -28.96875 C 19.71875 -28.425781 18.570312 -27.523438 17.21875 -26.265625 L 17.21875 0 Z M 5 0 "/></g></g></g><g fill="#000000" fill-opacity="1"><g transform="translate(729.185668, 1104.964805)"><g><path d="M 5 0 L 5 -39.359375 L 17.21875 -39.359375 L 17.21875 0 Z M 11.140625 -44.828125 C 9.066406 -44.828125 7.363281 -45.410156 6.03125 -46.578125 C 4.707031 -47.753906 4.046875 -49.265625 4.046875 -51.109375 C 4.046875 -52.953125 4.707031 -54.46875 6.03125 -55.65625 C 7.363281 -56.851562 9.066406 -57.453125 11.140625 -57.453125 C 13.160156 -57.453125 14.820312 -56.851562 16.125 -55.65625 C 17.4375 -54.46875 18.09375 -52.953125 18.09375 -51.109375 C 18.09375 -49.265625 17.4375 -47.753906 16.125 -46.578125 C 14.820312 -45.410156 13.160156 -44.828125 11.140625 -44.828125 Z M 11.140625 -44.828125 "/></g></g></g><g fill="#000000" fill-opacity="1"><g transform="translate(758.034801, 1104.964805)"><g><path d="M 20.453125 0.9375 C 15.734375 0.9375 12.234375 -0.429688 9.953125 -3.171875 C 7.679688 -5.921875 6.546875 -9.722656 6.546875 -14.578125 L 6.546875 -29.703125 L 1.21875 -29.703125 L 1.21875 -38.828125 L 7.296875 -39.359375 L 8.640625 -49.6875 L 18.90625 -49.6875 L 18.90625 -39.359375 L 28.15625 -39.359375 L 28.15625 -29.703125 L 18.90625 -29.703125 L 18.90625 -14.71875 C 18.90625 -10.664062 20.546875 -8.640625 23.828125 -8.640625 C 24.691406 -8.640625 25.910156 -8.863281 27.484375 -9.3125 L 29.375 -0.46875 C 26.132812 0.46875 23.160156 0.9375 20.453125 0.9375 Z M 20.453125 0.9375 "/></g></g></g><g fill="#000000" fill-opacity="1"><g transform="translate(795.457539, 1104.964805)"><g><path d="M 22.078125 0.9375 C 16.804688 0.9375 12.269531 -0.925781 8.46875 -4.65625 C 4.664062 -8.394531 2.765625 -13.390625 2.765625 -19.640625 C 2.765625 -25.898438 4.664062 -30.910156 8.46875 -34.671875 C 12.269531 -38.429688 16.804688 -40.3125 22.078125 -40.3125 C 27.296875 -40.3125 31.796875 -38.429688 35.578125 -34.671875 C 39.359375 -30.910156 41.25 -25.898438 41.25 -19.640625 C 41.25 -13.390625 39.359375 -8.394531 35.578125 -4.65625 C 31.796875 -0.925781 27.296875 0.9375 22.078125 0.9375 Z M 22.078125 -8.984375 C 26.492188 -8.984375 28.703125 -12.535156 28.703125 -19.640625 C 28.703125 -26.804688 26.492188 -30.390625 22.078125 -30.390625 C 17.578125 -30.390625 15.328125 -26.804688 15.328125 -19.640625 C 15.328125 -12.535156 17.578125 -8.984375 22.078125 -8.984375 Z M 22.078125 -8.984375 "/></g></g></g><g fill="#000000" fill-opacity="1"><g transform="translate(846.179489, 1104.964805)"><g><path d="M 5 0 L 5 -39.359375 L 14.984375 -39.359375 L 15.796875 -32.484375 L 16.140625 -32.484375 C 17.535156 -35.003906 19.234375 -36.9375 21.234375 -38.28125 C 23.234375 -39.632812 25.25 -40.3125 27.28125 -40.3125 C 29.257812 -40.3125 30.859375 -40.039062 32.078125 -39.5 L 29.984375 -28.90625 C 28.359375 -29.300781 26.9375 -29.5 25.71875 -29.5 C 24.101562 -29.5 22.53125 -28.9375 21 -27.8125 C 19.46875 -26.6875 18.207031 -24.910156 17.21875 -22.484375 L 17.21875 0 Z M 5 0 "/></g></g></g><g fill="#000000" fill-opacity="1"><g transform="translate(884.952412, 1104.964805)"><g><path d="M 22.75 0.9375 C 16.945312 0.9375 12.164062 -0.90625 8.40625 -4.59375 C 4.644531 -8.28125 2.765625 -13.296875 2.765625 -19.640625 C 2.765625 -25.765625 4.617188 -30.738281 8.328125 -34.5625 C 12.046875 -38.394531 16.40625 -40.3125 21.40625 -40.3125 C 26.851562 -40.3125 31.023438 -38.554688 33.921875 -35.046875 C 36.828125 -31.535156 38.28125 -26.941406 38.28125 -21.265625 C 38.28125 -18.972656 38.101562 -17.238281 37.75 -16.0625 L 14.65625 -16.0625 C 15.6875 -10.976562 18.945312 -8.4375 24.4375 -8.4375 C 27.1875 -8.4375 29.957031 -9.269531 32.75 -10.9375 L 36.859375 -3.515625 C 32.722656 -0.546875 28.019531 0.9375 22.75 0.9375 Z M 14.453125 -24.03125 L 27.890625 -24.03125 C 27.890625 -28.625 25.816406 -30.921875 21.671875 -30.921875 C 19.867188 -30.921875 18.316406 -30.332031 17.015625 -29.15625 C 15.710938 -27.988281 14.859375 -26.28125 14.453125 -24.03125 Z M 14.453125 -24.03125 "/></g></g></g><path stroke-linecap="butt" transform="matrix(0.75, -0.000000000000001023, 0.000000000000001023, 0.75, 467.839817, 795.954295)" fill="none" stroke-linejoin="miter" d="M 0.0000355955 6.49844 L 160.354216 6.49844 " stroke="#000000" stroke-width="13" stroke-opacity="1" stroke-miterlimit="4"/></svg>